<svg width="896" height="748" viewBox="0 0 896 748" fill="none" xmlns="http://www.w3.org/2000/svg">
<g filter="url(#filter0_d_68_328)">
<g filter="url(#filter1_i_68_328)">
<path d="M503 430H501V448.5H503V430Z" fill="#F2F2F2"/>
</g>
<path d="M503 430H501V448.5H503V430Z" stroke="black" stroke-width="2"/>
<g filter="url(#filter2_i_68_328)">
<path d="M502.412 537.104H265.626V535.401H500.708V452.781H285.532L275.079 431.004L276.615 430.267L286.604 451.077H502.412V537.104Z" fill="#2F2E41"/>
</g>
<path d="M502.412 537.104H265.626V535.401H500.708V452.781H285.532L275.079 431.004L276.615 430.267L286.604 451.077H502.412V537.104Z" stroke="black" stroke-width="2"/>
<g filter="url(#filter3_i_68_328)">
<path d="M297.14 578.84C307.019 578.84 315.027 570.832 315.027 560.953C315.027 551.075 307.019 543.066 297.14 543.066C287.261 543.066 279.253 551.075 279.253 560.953C279.253 570.832 287.261 578.84 297.14 578.84Z" fill="#3F3D56"/>
</g>
<path d="M297.14 578.84C307.019 578.84 315.027 570.832 315.027 560.953C315.027 551.075 307.019 543.066 297.14 543.066C287.261 543.066 279.253 551.075 279.253 560.953C279.253 570.832 287.261 578.84 297.14 578.84Z" stroke="black" stroke-width="2"/>
<g filter="url(#filter4_i_68_328)">
<path d="M473.452 578.84C483.331 578.84 491.339 570.832 491.339 560.953C491.339 551.075 483.331 543.066 473.452 543.066C463.574 543.066 455.565 551.075 455.565 560.953C455.565 570.832 463.574 578.84 473.452 578.84Z" fill="#3F3D56"/>
</g>
<path d="M473.452 578.84C483.331 578.84 491.339 570.832 491.339 560.953C491.339 551.075 483.331 543.066 473.452 543.066C463.574 543.066 455.565 551.075 455.565 560.953C455.565 570.832 463.574 578.84 473.452 578.84Z" stroke="black" stroke-width="2"/>
<g filter="url(#filter5_i_68_328)">
<path d="M681.279 192.145C687.394 192.145 692.352 187.188 692.352 181.073C692.352 174.957 687.394 170 681.279 170C675.164 170 670.206 174.957 670.206 181.073C670.206 187.188 675.164 192.145 681.279 192.145Z" fill="#3F3D56"/>
</g>
<path d="M681.279 192.145C687.394 192.145 692.352 187.188 692.352 181.073C692.352 174.957 687.394 170 681.279 170C675.164 170 670.206 174.957 670.206 181.073C670.206 187.188 675.164 192.145 681.279 192.145Z" stroke="black" stroke-width="2"/>
<g filter="url(#filter6_i_68_328)">
<path d="M526.737 424.236H260.588L203 236H586.044L585.696 237.108L526.737 424.236ZM261.848 422.533H525.488L583.722 237.703H205.302L261.848 422.533Z" fill="#2F2E41"/>
</g>
<path d="M526.737 424.236H260.588L203 236H586.044L585.696 237.108L526.737 424.236ZM261.848 422.533H525.488L583.722 237.703H205.302L261.848 422.533Z" stroke="black" stroke-width="2"/>
<g filter="url(#filter7_i_68_328)">
<path d="M512.35 414.943H278.582L228 248H564.441L564.135 248.983L512.35 414.943Z" fill="#F2F2F2"/>
</g>
<path d="M512.35 414.943H278.582L228 248H564.441L564.135 248.983L512.35 414.943Z" stroke="black" stroke-width="2"/>
<g filter="url(#filter8_i_68_328)">
<path d="M591.817 219.62L590.17 219.183L601.411 176.814H666.8V178.518H602.722L591.817 219.62Z" fill="#2F2E41"/>
</g>
<path d="M591.817 219.62L590.17 219.183L601.411 176.814H666.8V178.518H602.722L591.817 219.62Z" stroke="black" stroke-width="2"/>
<g filter="url(#filter9_i_68_328)">
<path d="M567.903 293.504H222.61V295.207H567.903V293.504Z" fill="#2F2E41"/>
</g>
<path d="M567.903 293.504H222.61V295.207H567.903V293.504Z" stroke="black" stroke-width="2"/>
<g filter="url(#filter10_i_68_328)">
<path d="M548.129 356.264H241.811V357.967H548.129V356.264Z" fill="#2F2E41"/>
</g>
<path d="M548.129 356.264H241.811V357.967H548.129V356.264Z" stroke="black" stroke-width="2"/>
<g filter="url(#filter11_i_68_328)">
<path d="M396.369 237.289H394.665V423.822H396.369V237.289Z" fill="#2F2E41"/>
</g>
<path d="M396.369 237.289H394.665V423.822H396.369V237.289Z" stroke="black" stroke-width="2"/>
<g filter="url(#filter12_i_68_328)">
<path d="M472.637 237.235L460.409 423.763L462.109 423.875L474.338 237.346L472.637 237.235Z" fill="#2F2E41"/>
</g>
<path d="M472.637 237.235L460.409 423.763L462.109 423.875L474.338 237.346L472.637 237.235Z" stroke="black" stroke-width="2"/>
<g filter="url(#filter13_i_68_328)">
<path d="M318.432 237.233L316.732 237.344L328.889 423.877L330.589 423.766L318.432 237.233Z" fill="#2F2E41"/>
</g>
<path d="M318.432 237.233L316.732 237.344L328.889 423.877L330.589 423.766L318.432 237.233Z" stroke="black" stroke-width="2"/>
</g>
<defs>
<filter id="filter0_d_68_328" x="-4" y="0" width="904" height="755.972" filterUnits="userSpaceOnUse" color-interpolation-filters="sRGB">
<feFlood flood-opacity="0" result="BackgroundImageFix"/>
<feColorMatrix in="SourceAlpha" type="matrix" values="0 0 0 0 0 0 0 0 0 0 0 0 0 0 0 0 0 0 127 0" result="hardAlpha"/>
<feOffset dy="4"/>
<feGaussianBlur stdDeviation="2"/>
<feComposite in2="hardAlpha" operator="out"/>
<feColorMatrix type="matrix" values="0 0 0 0 0 0 0 0 0 0 0 0 0 0 0 0 0 0 0.25 0"/>
<feBlend mode="normal" in2="BackgroundImageFix" result="effect1_dropShadow_68_328"/>
<feBlend mode="normal" in="SourceGraphic" in2="effect1_dropShadow_68_328" result="shape"/>
</filter>
<filter id="filter1_i_68_328" x="500" y="429" width="4" height="24.5" filterUnits="userSpaceOnUse" color-interpolation-filters="sRGB">
<feFlood flood-opacity="0" result="BackgroundImageFix"/>
<feBlend mode="normal" in="SourceGraphic" in2="BackgroundImageFix" result="shape"/>
<feColorMatrix in="SourceAlpha" type="matrix" values="0 0 0 0 0 0 0 0 0 0 0 0 0 0 0 0 0 0 127 0" result="hardAlpha"/>
<feOffset dy="4"/>
<feGaussianBlur stdDeviation="2"/>
<feComposite in2="hardAlpha" operator="arithmetic" k2="-1" k3="1"/>
<feColorMatrix type="matrix" values="0 0 0 0 0 0 0 0 0 0 0 0 0 0 0 0 0 0 0.25 0"/>
<feBlend mode="normal" in2="shape" result="effect1_innerShadow_68_328"/>
</filter>
<filter id="filter2_i_68_328" x="264.626" y="428.933" width="238.786" height="113.171" filterUnits="userSpaceOnUse" color-interpolation-filters="sRGB">
<feFlood flood-opacity="0" result="BackgroundImageFix"/>
<feBlend mode="normal" in="SourceGraphic" in2="BackgroundImageFix" result="shape"/>
<feColorMatrix in="SourceAlpha" type="matrix" values="0 0 0 0 0 0 0 0 0 0 0 0 0 0 0 0 0 0 127 0" result="hardAlpha"/>
<feOffset dy="4"/>
<feGaussianBlur stdDeviation="2"/>
<feComposite in2="hardAlpha" operator="arithmetic" k2="-1" k3="1"/>
<feColorMatrix type="matrix" values="0 0 0 0 0 0 0 0 0 0 0 0 0 0 0 0 0 0 0.25 0"/>
<feBlend mode="normal" in2="shape" result="effect1_innerShadow_68_328"/>
</filter>
<filter id="filter3_i_68_328" x="278.253" y="542.066" width="37.7734" height="41.7734" filterUnits="userSpaceOnUse" color-interpolation-filters="sRGB">
<feFlood flood-opacity="0" result="BackgroundImageFix"/>
<feBlend mode="normal" in="SourceGraphic" in2="BackgroundImageFix" result="shape"/>
<feColorMatrix in="SourceAlpha" type="matrix" values="0 0 0 0 0 0 0 0 0 0 0 0 0 0 0 0 0 0 127 0" result="hardAlpha"/>
<feOffset dy="4"/>
<feGaussianBlur stdDeviation="2"/>
<feComposite in2="hardAlpha" operator="arithmetic" k2="-1" k3="1"/>
<feColorMatrix type="matrix" values="0 0 0 0 0 0 0 0 0 0 0 0 0 0 0 0 0 0 0.25 0"/>
<feBlend mode="normal" in2="shape" result="effect1_innerShadow_68_328"/>
</filter>
<filter id="filter4_i_68_328" x="454.565" y="542.066" width="37.7734" height="41.7734" filterUnits="userSpaceOnUse" color-interpolation-filters="sRGB">
<feFlood flood-opacity="0" result="BackgroundImageFix"/>
<feBlend mode="normal" in="SourceGraphic" in2="BackgroundImageFix" result="shape"/>
<feColorMatrix in="SourceAlpha" type="matrix" values="0 0 0 0 0 0 0 0 0 0 0 0 0 0 0 0 0 0 127 0" result="hardAlpha"/>
<feOffset dy="4"/>
<feGaussianBlur stdDeviation="2"/>
<feComposite in2="hardAlpha" operator="arithmetic" k2="-1" k3="1"/>
<feColorMatrix type="matrix" values="0 0 0 0 0 0 0 0 0 0 0 0 0 0 0 0 0 0 0.25 0"/>
<feBlend mode="normal" in2="shape" result="effect1_innerShadow_68_328"/>
</filter>
<filter id="filter5_i_68_328" x="669.206" y="169" width="24.1455" height="28.1455" filterUnits="userSpaceOnUse" color-interpolation-filters="sRGB">
<feFlood flood-opacity="0" result="BackgroundImageFix"/>
<feBlend mode="normal" in="SourceGraphic" in2="BackgroundImageFix" result="shape"/>
<feColorMatrix in="SourceAlpha" type="matrix" values="0 0 0 0 0 0 0 0 0 0 0 0 0 0 0 0 0 0 127 0" result="hardAlpha"/>
<feOffset dy="4"/>
<feGaussianBlur stdDeviation="2"/>
<feComposite in2="hardAlpha" operator="arithmetic" k2="-1" k3="1"/>
<feColorMatrix type="matrix" values="0 0 0 0 0 0 0 0 0 0 0 0 0 0 0 0 0 0 0.25 0"/>
<feBlend mode="normal" in2="shape" result="effect1_innerShadow_68_328"/>
</filter>
<filter id="filter6_i_68_328" x="201.648" y="235" width="385.759" height="194.236" filterUnits="userSpaceOnUse" color-interpolation-filters="sRGB">
<feFlood flood-opacity="0" result="BackgroundImageFix"/>
<feBlend mode="normal" in="SourceGraphic" in2="BackgroundImageFix" result="shape"/>
<feColorMatrix in="SourceAlpha" type="matrix" values="0 0 0 0 0 0 0 0 0 0 0 0 0 0 0 0 0 0 127 0" result="hardAlpha"/>
<feOffset dy="4"/>
<feGaussianBlur stdDeviation="2"/>
<feComposite in2="hardAlpha" operator="arithmetic" k2="-1" k3="1"/>
<feColorMatrix type="matrix" values="0 0 0 0 0 0 0 0 0 0 0 0 0 0 0 0 0 0 0.25 0"/>
<feBlend mode="normal" in2="shape" result="effect1_innerShadow_68_328"/>
</filter>
<filter id="filter7_i_68_328" x="226.652" y="247" width="339.148" height="172.943" filterUnits="userSpaceOnUse" color-interpolation-filters="sRGB">
<feFlood flood-opacity="0" result="BackgroundImageFix"/>
<feBlend mode="normal" in="SourceGraphic" in2="BackgroundImageFix" result="shape"/>
<feColorMatrix in="SourceAlpha" type="matrix" values="0 0 0 0 0 0 0 0 0 0 0 0 0 0 0 0 0 0 127 0" result="hardAlpha"/>
<feOffset dy="4"/>
<feGaussianBlur stdDeviation="2"/>
<feComposite in2="hardAlpha" operator="arithmetic" k2="-1" k3="1"/>
<feColorMatrix type="matrix" values="0 0 0 0 0 0 0 0 0 0 0 0 0 0 0 0 0 0 0.25 0"/>
<feBlend mode="normal" in2="shape" result="effect1_innerShadow_68_328"/>
</filter>
<filter id="filter8_i_68_328" x="588.947" y="175.814" width="78.853" height="49.0288" filterUnits="userSpaceOnUse" color-interpolation-filters="sRGB">
<feFlood flood-opacity="0" result="BackgroundImageFix"/>
<feBlend mode="normal" in="SourceGraphic" in2="BackgroundImageFix" result="shape"/>
<feColorMatrix in="SourceAlpha" type="matrix" values="0 0 0 0 0 0 0 0 0 0 0 0 0 0 0 0 0 0 127 0" result="hardAlpha"/>
<feOffset dy="4"/>
<feGaussianBlur stdDeviation="2"/>
<feComposite in2="hardAlpha" operator="arithmetic" k2="-1" k3="1"/>
<feColorMatrix type="matrix" values="0 0 0 0 0 0 0 0 0 0 0 0 0 0 0 0 0 0 0.25 0"/>
<feBlend mode="normal" in2="shape" result="effect1_innerShadow_68_328"/>
</filter>
<filter id="filter9_i_68_328" x="221.61" y="292.504" width="347.293" height="7.70361" filterUnits="userSpaceOnUse" color-interpolation-filters="sRGB">
<feFlood flood-opacity="0" result="BackgroundImageFix"/>
<feBlend mode="normal" in="SourceGraphic" in2="BackgroundImageFix" result="shape"/>
<feColorMatrix in="SourceAlpha" type="matrix" values="0 0 0 0 0 0 0 0 0 0 0 0 0 0 0 0 0 0 127 0" result="hardAlpha"/>
<feOffset dy="4"/>
<feGaussianBlur stdDeviation="2"/>
<feComposite in2="hardAlpha" operator="arithmetic" k2="-1" k3="1"/>
<feColorMatrix type="matrix" values="0 0 0 0 0 0 0 0 0 0 0 0 0 0 0 0 0 0 0.25 0"/>
<feBlend mode="normal" in2="shape" result="effect1_innerShadow_68_328"/>
</filter>
<filter id="filter10_i_68_328" x="240.811" y="355.264" width="308.319" height="7.70361" filterUnits="userSpaceOnUse" color-interpolation-filters="sRGB">
<feFlood flood-opacity="0" result="BackgroundImageFix"/>
<feBlend mode="normal" in="SourceGraphic" in2="BackgroundImageFix" result="shape"/>
<feColorMatrix in="SourceAlpha" type="matrix" values="0 0 0 0 0 0 0 0 0 0 0 0 0 0 0 0 0 0 127 0" result="hardAlpha"/>
<feOffset dy="4"/>
<feGaussianBlur stdDeviation="2"/>
<feComposite in2="hardAlpha" operator="arithmetic" k2="-1" k3="1"/>
<feColorMatrix type="matrix" values="0 0 0 0 0 0 0 0 0 0 0 0 0 0 0 0 0 0 0.25 0"/>
<feBlend mode="normal" in2="shape" result="effect1_innerShadow_68_328"/>
</filter>
<filter id="filter11_i_68_328" x="393.665" y="236.289" width="3.70349" height="192.533" filterUnits="userSpaceOnUse" color-interpolation-filters="sRGB">
<feFlood flood-opacity="0" result="BackgroundImageFix"/>
<feBlend mode="normal" in="SourceGraphic" in2="BackgroundImageFix" result="shape"/>
<feColorMatrix in="SourceAlpha" type="matrix" values="0 0 0 0 0 0 0 0 0 0 0 0 0 0 0 0 0 0 127 0" result="hardAlpha"/>
<feOffset dy="4"/>
<feGaussianBlur stdDeviation="2"/>
<feComposite in2="hardAlpha" operator="arithmetic" k2="-1" k3="1"/>
<feColorMatrix type="matrix" values="0 0 0 0 0 0 0 0 0 0 0 0 0 0 0 0 0 0 0.25 0"/>
<feBlend mode="normal" in2="shape" result="effect1_innerShadow_68_328"/>
</filter>
<filter id="filter12_i_68_328" x="459.346" y="236.171" width="16.055" height="192.767" filterUnits="userSpaceOnUse" color-interpolation-filters="sRGB">
<feFlood flood-opacity="0" result="BackgroundImageFix"/>
<feBlend mode="normal" in="SourceGraphic" in2="BackgroundImageFix" result="shape"/>
<feColorMatrix in="SourceAlpha" type="matrix" values="0 0 0 0 0 0 0 0 0 0 0 0 0 0 0 0 0 0 127 0" result="hardAlpha"/>
<feOffset dy="4"/>
<feGaussianBlur stdDeviation="2"/>
<feComposite in2="hardAlpha" operator="arithmetic" k2="-1" k3="1"/>
<feColorMatrix type="matrix" values="0 0 0 0 0 0 0 0 0 0 0 0 0 0 0 0 0 0 0.25 0"/>
<feBlend mode="normal" in2="shape" result="effect1_innerShadow_68_328"/>
</filter>
<filter id="filter13_i_68_328" x="315.669" y="236.17" width="15.9833" height="192.77" filterUnits="userSpaceOnUse" color-interpolation-filters="sRGB">
<feFlood flood-opacity="0" result="BackgroundImageFix"/>
<feBlend mode="normal" in="SourceGraphic" in2="BackgroundImageFix" result="shape"/>
<feColorMatrix in="SourceAlpha" type="matrix" values="0 0 0 0 0 0 0 0 0 0 0 0 0 0 0 0 0 0 127 0" result="hardAlpha"/>
<feOffset dy="4"/>
<feGaussianBlur stdDeviation="2"/>
<feComposite in2="hardAlpha" operator="arithmetic" k2="-1" k3="1"/>
<feColorMatrix type="matrix" values="0 0 0 0 0 0 0 0 0 0 0 0 0 0 0 0 0 0 0.25 0"/>
<feBlend mode="normal" in2="shape" result="effect1_innerShadow_68_328"/>
</filter>
</defs>
</svg>
