<svg width="988" height="715" viewBox="0 0 988 715" fill="none" xmlns="http://www.w3.org/2000/svg">
<rect width="987.587" height="714.028" fill="white"/>
<path d="M325.682 551C320.969 550.984 316.336 550.119 312.202 548.484C308.068 546.849 304.564 544.494 302.007 541.634C299.45 538.773 297.921 535.497 297.558 532.103C297.195 528.708 298.01 525.301 299.929 522.191L332.548 469.616C306.859 453.201 286.301 433.024 272.24 410.425C258.18 387.827 250.94 363.325 251 338.549C251 241.752 360.009 163 494 163C627.992 163 737 241.752 737 338.549C737 435.346 627.992 514.098 494 514.098C470.561 514.081 447.249 511.6 424.798 506.734L341.551 547.448C336.874 549.754 331.345 550.992 325.682 551ZM494 187.495C450.635 187.477 408.336 197.205 372.967 215.332C337.598 233.458 310.911 259.085 296.606 288.659C282.3 318.233 281.084 350.29 293.127 380.386C305.17 410.481 329.875 437.125 363.817 456.623L374.092 462.544L338.996 519.117L419.536 479.727L427.489 481.657C456.217 488.629 486.701 491.005 516.827 488.62C546.954 486.236 576.002 479.147 601.958 467.845C627.915 456.544 650.16 441.3 667.151 423.171C684.142 405.041 695.473 384.459 700.359 362.851C705.245 341.244 703.568 319.127 695.445 298.034C687.323 276.94 672.948 257.375 653.318 240.695C633.689 224.014 609.273 210.616 581.763 201.43C554.253 192.244 524.307 187.489 494 187.495Z" fill="black"/>
<path d="M433.52 357.04C443.748 357.04 452.04 348.748 452.04 338.52C452.04 328.292 443.748 320 433.52 320C423.292 320 415 328.292 415 338.52C415 348.748 423.292 357.04 433.52 357.04Z" fill="black"/>
<path d="M551.52 357.04C561.748 357.04 570.04 348.748 570.04 338.52C570.04 328.292 561.748 320 551.52 320C541.292 320 533 328.292 533 338.52C533 348.748 541.292 357.04 551.52 357.04Z" fill="black"/>
<path d="M492.52 357.04C502.748 357.04 511.04 348.748 511.04 338.52C511.04 328.292 502.748 320 492.52 320C482.292 320 474 328.292 474 338.52C474 348.748 482.292 357.04 492.52 357.04Z" fill="black"/>
</svg>
