<svg width="215" height="201" viewBox="0 0 215 201" fill="none" xmlns="http://www.w3.org/2000/svg">
<g filter="url(#filter0_i_72_36)">
<path d="M200.545 200.941H13.609C10.0009 200.937 6.54188 199.502 3.9906 196.95C1.43932 194.399 0.00418429 190.94 0 187.332V13.609C0.00418429 10.001 1.43932 6.54191 3.9906 3.99063C6.54188 1.43935 10.0009 0.00418429 13.609 0H200.545C204.153 0.00418165 207.612 1.43935 210.163 3.99063C212.714 6.54191 214.149 10.001 214.154 13.609V187.332C214.149 190.94 212.714 194.399 210.163 196.95C207.612 199.502 204.153 200.937 200.545 200.941Z" fill="#F2F2F2"/>
<path d="M161.2 191.762H22.7906C19.1826 191.758 15.7235 190.322 13.1723 187.771C10.621 185.22 9.18582 181.761 9.18164 178.153V22.796C9.18582 19.188 10.621 15.7289 13.1723 13.1776C15.7235 10.6263 19.1826 9.1912 22.7906 9.18701H191.365C194.973 9.1912 198.432 10.6263 200.984 13.1776C203.535 15.7289 204.97 19.188 204.974 22.796V147.988C204.961 159.593 200.345 170.72 192.139 178.926C183.932 187.133 172.806 191.749 161.2 191.762Z" fill="white"/>
<path d="M107.078 161.474C140.767 161.474 168.078 134.163 168.078 100.474C168.078 66.7848 140.767 39.4741 107.078 39.4741C73.3887 39.4741 46.0781 66.7848 46.0781 100.474C46.0781 134.163 73.3887 161.474 107.078 161.474Z" fill="black"/>
<path d="M132.775 97.4052L112.419 72.6512C111.867 71.9798 111.175 71.4363 110.392 71.0585C109.609 70.6807 108.753 70.4776 107.884 70.4632C107.014 70.4488 106.152 70.6235 105.357 70.9752C104.562 71.3268 103.853 71.8471 103.279 72.4999L81.5102 97.2538C80.4616 98.4491 79.9303 100.012 80.0331 101.599C80.1359 103.185 80.8643 104.667 82.0584 105.717C83.2525 106.767 84.8146 107.3 86.4015 107.199C87.9884 107.098 89.4704 106.371 90.5219 105.179L101.785 92.3711V124.486C101.785 126.077 102.417 127.604 103.542 128.729C104.667 129.854 106.193 130.486 107.785 130.486C109.376 130.486 110.902 129.854 112.027 128.729C113.153 127.604 113.785 126.077 113.785 124.486V93.2053L123.506 105.027C124.517 106.256 125.975 107.034 127.558 107.188C129.142 107.342 130.723 106.861 131.952 105.85C133.181 104.84 133.958 103.382 134.112 101.798C134.267 100.215 133.786 98.6342 132.775 97.4052Z" fill="white"/>
</g>
<path d="M161.2 192.762H161.201C173.072 192.748 184.452 188.027 192.846 179.633C201.239 171.24 205.961 159.859 205.974 147.989V147.988V22.796V22.7949C205.97 18.922 204.429 15.209 201.691 12.4705C198.952 9.73198 195.239 8.1915 191.366 8.18701H191.365L22.7906 8.18701L22.7895 8.18701C18.9166 8.1915 15.2037 9.73198 12.4652 12.4705C9.72664 15.209 8.18613 18.922 8.18164 22.7949V22.796L8.18164 178.153L8.18164 178.154C8.18613 182.027 9.72664 185.74 12.4652 188.478C15.2037 191.217 18.9166 192.757 22.7895 192.762H22.7906H161.2ZM113.191 72.0161L113.191 72.016C112.547 71.2326 111.74 70.5986 110.826 70.1579C109.913 69.7171 108.914 69.4802 107.9 69.4634C106.886 69.4466 105.88 69.6504 104.953 70.0606C104.025 70.4709 103.198 71.0778 102.528 71.8394L102.528 71.8395L80.7592 96.5934L80.7584 96.5943C79.535 97.9889 78.9152 99.812 79.0352 101.663C79.1551 103.515 80.0049 105.242 81.398 106.468C82.7911 107.693 84.6135 108.315 86.4649 108.197C88.3163 108.079 90.0453 107.231 91.272 105.84L91.2728 105.839L100.785 95.0226V124.486C100.785 126.343 101.522 128.123 102.835 129.436C104.148 130.749 105.928 131.486 107.785 131.486C109.641 131.486 111.422 130.749 112.734 129.436C114.047 128.123 114.785 126.343 114.785 124.486V95.9957L122.734 105.662C123.913 107.096 125.614 108.003 127.461 108.183C129.309 108.363 131.153 107.802 132.587 106.623C134.021 105.444 134.928 103.743 135.108 101.895C135.288 100.048 134.726 98.2039 133.547 96.77L113.191 72.0161ZM102.785 92.3711V89.7197L101.034 91.7108L89.7717 104.517C88.8955 105.511 87.6605 106.117 86.338 106.201C85.0156 106.285 83.7138 105.841 82.7188 104.966C81.7237 104.091 81.1166 102.856 81.031 101.534C80.9453 100.212 81.388 98.9094 82.2619 97.9132L104.03 73.1603C104.508 72.6163 105.099 72.1828 105.762 71.8897C106.424 71.5967 107.143 71.4511 107.867 71.4631C108.592 71.4751 109.305 71.6444 109.957 71.9592C110.61 72.274 111.186 72.7268 111.646 73.2864C111.646 73.2864 111.647 73.2864 111.647 73.2865L132.002 98.0403L132.775 97.4052L132.002 98.0403C132.845 99.0646 133.246 100.382 133.117 101.701C132.988 103.021 132.341 104.236 131.317 105.078C130.292 105.92 128.975 106.321 127.656 106.193C126.336 106.064 125.121 105.416 124.279 104.392L114.557 92.5701L112.785 90.4148V93.2053V124.486C112.785 125.812 112.258 127.084 111.32 128.022C110.383 128.959 109.111 129.486 107.785 129.486C106.459 129.486 105.187 128.959 104.249 128.022C103.311 127.084 102.785 125.812 102.785 124.486V92.3711ZM200.543 199.941H13.6101C10.2669 199.937 7.06174 198.607 4.69771 196.243C2.33381 193.879 1.00402 190.674 1 187.331V13.6096C1.00402 10.2666 2.33381 7.06163 4.69771 4.69774C7.0616 2.33384 10.2666 1.00402 13.6096 1H200.544C203.887 1.00402 207.092 2.33384 209.456 4.69774C211.82 7.06176 213.15 10.2669 213.154 13.6102V187.331C213.15 190.674 211.82 193.879 209.456 196.243C207.092 198.607 203.887 199.937 200.543 199.941ZM161.199 190.762H22.7918C19.4486 190.758 16.2434 189.428 13.8794 187.064C11.5155 184.7 10.1857 181.495 10.1816 178.152C10.1816 178.152 10.1816 178.152 10.1816 178.152V22.7972C10.1816 22.7969 10.1816 22.7966 10.1816 22.7964C10.1857 19.4534 11.5155 16.2486 13.8794 13.8847C16.2432 11.5209 19.4481 10.1911 22.791 10.187C22.7913 10.187 22.7915 10.187 22.7918 10.187H191.364C191.364 10.187 191.364 10.187 191.365 10.187C194.708 10.1911 197.913 11.5209 200.276 13.8847C202.64 16.2487 203.97 19.4539 203.974 22.7972V147.987C203.961 159.327 199.451 170.2 191.431 178.219C183.412 186.238 172.54 190.749 161.199 190.762ZM167.078 100.474C167.078 133.611 140.215 160.474 107.078 160.474C73.941 160.474 47.0781 133.611 47.0781 100.474C47.0781 67.337 73.941 40.4741 107.078 40.4741C140.215 40.4741 167.078 67.337 167.078 100.474ZM107.078 162.474C141.32 162.474 169.078 134.716 169.078 100.474C169.078 66.2325 141.32 38.4741 107.078 38.4741C72.8365 38.4741 45.0781 66.2325 45.0781 100.474C45.0781 134.716 72.8365 162.474 107.078 162.474Z" stroke="black" stroke-width="2"/>
<defs>
<filter id="filter0_i_72_36" x="0" y="0" width="214.153" height="204.941" filterUnits="userSpaceOnUse" color-interpolation-filters="sRGB">
<feFlood flood-opacity="0" result="BackgroundImageFix"/>
<feBlend mode="normal" in="SourceGraphic" in2="BackgroundImageFix" result="shape"/>
<feColorMatrix in="SourceAlpha" type="matrix" values="0 0 0 0 0 0 0 0 0 0 0 0 0 0 0 0 0 0 127 0" result="hardAlpha"/>
<feOffset dy="4"/>
<feGaussianBlur stdDeviation="2"/>
<feComposite in2="hardAlpha" operator="arithmetic" k2="-1" k3="1"/>
<feColorMatrix type="matrix" values="0 0 0 0 0 0 0 0 0 0 0 0 0 0 0 0 0 0 0.25 0"/>
<feBlend mode="normal" in2="shape" result="effect1_innerShadow_72_36"/>
</filter>
</defs>
</svg>
